<svg width="24" height="24" viewBox="0 0 24 24" fill="none" xmlns="http://www.w3.org/2000/svg">
<g clip-path="url(#clip0_4709_1553)">
<path d="M20.3169 4.15606C18.7872 3.45418 17.1469 2.93706 15.4318 2.64089C15.4005 2.63517 15.3693 2.64946 15.3533 2.67803C15.1423 3.05324 14.9086 3.54274 14.745 3.92749C12.9003 3.65132 11.0651 3.65132 9.2582 3.92749C9.09453 3.53419 8.85236 3.05324 8.64045 2.67803C8.62436 2.65041 8.59316 2.63613 8.56193 2.64089C6.84779 2.93612 5.20744 3.45323 3.67681 4.15606C3.66356 4.16177 3.6522 4.17131 3.64467 4.18368C0.53327 8.83204 -0.319072 13.3661 0.099058 17.844C0.10095 17.8659 0.113248 17.8869 0.130276 17.9002C2.18309 19.4078 4.17159 20.323 6.12316 20.9296C6.15439 20.9391 6.18748 20.9277 6.20736 20.902C6.669 20.2716 7.08052 19.6068 7.43335 18.9078C7.45418 18.8668 7.4343 18.8183 7.39174 18.8021C6.73901 18.5545 6.11748 18.2526 5.51961 17.9098C5.47232 17.8821 5.46853 17.8145 5.51204 17.7821C5.63785 17.6878 5.7637 17.5897 5.88383 17.4907C5.90557 17.4726 5.93586 17.4688 5.96141 17.4802C9.88916 19.2735 14.1414 19.2735 18.0228 17.4802C18.0484 17.4678 18.0787 17.4717 18.1014 17.4898C18.2215 17.5888 18.3473 17.6878 18.4741 17.7821C18.5176 17.8145 18.5148 17.8821 18.4675 17.9098C17.8696 18.2592 17.2481 18.5545 16.5944 18.8011C16.5518 18.8173 16.5329 18.8668 16.5537 18.9078C16.9141 19.6058 17.3256 20.2706 17.7788 20.901C17.7977 20.9277 17.8317 20.9391 17.863 20.9296C19.824 20.323 21.8125 19.4078 23.8653 17.9002C23.8833 17.8869 23.8946 17.8669 23.8965 17.845C24.397 12.6681 23.0584 8.17113 20.3481 4.18462C20.3415 4.17131 20.3301 4.16177 20.3169 4.15606ZM8.0199 15.1175C6.83738 15.1175 5.86301 14.0318 5.86301 12.6985C5.86301 11.3653 6.81848 10.2796 8.0199 10.2796C9.23075 10.2796 10.1957 11.3748 10.1768 12.6985C10.1768 14.0318 9.22129 15.1175 8.0199 15.1175ZM15.9946 15.1175C14.8121 15.1175 13.8378 14.0318 13.8378 12.6985C13.8378 11.3653 14.7932 10.2796 15.9946 10.2796C17.2055 10.2796 18.1704 11.3748 18.1515 12.6985C18.1515 14.0318 17.2055 15.1175 15.9946 15.1175Z" fill="#B00019"/>
</g>
<defs>
<clipPath id="clip0_4709_1553">
<rect width="24" height="24" fill="white"/>
</clipPath>
</defs>
</svg>
