<svg width="24" height="24" viewBox="0 0 24 24" fill="none" xmlns="http://www.w3.org/2000/svg">
<g clip-path="url(#clip0_4626_12936)">
<path fill-rule="evenodd" clip-rule="evenodd" d="M11.9999 2.16094C15.2061 2.16094 15.5858 2.175 16.8468 2.23125C18.0186 2.28281 18.6514 2.47969 19.0733 2.64375C19.6311 2.85938 20.0343 3.12188 20.4514 3.53906C20.8733 3.96094 21.1311 4.35938 21.3468 4.91719C21.5108 5.33906 21.7077 5.97656 21.7593 7.14375C21.8155 8.40937 21.8296 8.78906 21.8296 11.9906C21.8296 15.1969 21.8155 15.5766 21.7593 16.8375C21.7077 18.0094 21.5108 18.6422 21.3468 19.0641C21.1311 19.6219 20.8686 20.025 20.4514 20.4422C20.0296 20.8641 19.6311 21.1219 19.0733 21.3375C18.6514 21.5016 18.0139 21.6984 16.8468 21.75C15.5811 21.8062 15.2014 21.8203 11.9999 21.8203C8.79363 21.8203 8.41394 21.8062 7.153 21.75C5.98113 21.6984 5.34832 21.5016 4.92644 21.3375C4.36863 21.1219 3.9655 20.8594 3.54832 20.4422C3.12644 20.0203 2.86863 19.6219 2.653 19.0641C2.48894 18.6422 2.29207 18.0047 2.2405 16.8375C2.18425 15.5719 2.17019 15.1922 2.17019 11.9906C2.17019 8.78438 2.18425 8.40469 2.2405 7.14375C2.29207 5.97187 2.48894 5.33906 2.653 4.91719C2.86863 4.35938 3.13113 3.95625 3.54832 3.53906C3.97019 3.11719 4.36863 2.85938 4.92644 2.64375C5.34832 2.47969 5.98582 2.28281 7.153 2.23125C8.41394 2.175 8.79363 2.16094 11.9999 2.16094ZM11.9999 0C8.74207 0 8.33425 0.0140625 7.05457 0.0703125C5.77957 0.126563 4.903 0.332812 4.14363 0.628125C3.35144 0.9375 2.68113 1.34531 2.0155 2.01562C1.34519 2.68125 0.937378 3.35156 0.628003 4.13906C0.33269 4.90313 0.12644 5.775 0.0701904 7.05C0.0139404 8.33437 -0.00012207 8.74219 -0.00012207 12C-0.00012207 15.2578 0.0139404 15.6656 0.0701904 16.9453C0.12644 18.2203 0.33269 19.0969 0.628003 19.8563C0.937378 20.6484 1.34519 21.3188 2.0155 21.9844C2.68113 22.65 3.35144 23.0625 4.13894 23.3672C4.903 23.6625 5.77488 23.8687 7.04988 23.925C8.32957 23.9812 8.73738 23.9953 11.9952 23.9953C15.253 23.9953 15.6608 23.9812 16.9405 23.925C18.2155 23.8687 19.0921 23.6625 19.8514 23.3672C20.6389 23.0625 21.3093 22.65 21.9749 21.9844C22.6405 21.3188 23.053 20.6484 23.3577 19.8609C23.653 19.0969 23.8593 18.225 23.9155 16.95C23.9718 15.6703 23.9858 15.2625 23.9858 12.0047C23.9858 8.74688 23.9718 8.33906 23.9155 7.05938C23.8593 5.78438 23.653 4.90781 23.3577 4.14844C23.0624 3.35156 22.6546 2.68125 21.9843 2.01562C21.3186 1.35 20.6483 0.9375 19.8608 0.632812C19.0968 0.3375 18.2249 0.13125 16.9499 0.075C15.6655 0.0140625 15.2577 0 11.9999 0ZM11.9999 5.83594C8.59675 5.83594 5.83582 8.59688 5.83582 12C5.83582 15.4031 8.59675 18.1641 11.9999 18.1641C15.403 18.1641 18.1639 15.4031 18.1639 12C18.1639 8.59688 15.403 5.83594 11.9999 5.83594ZM11.9999 15.9984C9.79207 15.9984 8.00144 14.2078 8.00144 12C8.00144 9.79219 9.79207 8.00156 11.9999 8.00156C14.2077 8.00156 15.9983 9.79219 15.9983 12C15.9983 14.2078 14.2077 15.9984 11.9999 15.9984ZM18.4077 7.03145C19.1999 7.03145 19.8468 6.38926 19.8468 5.59238C19.8468 4.8002 19.1999 4.15332 18.4077 4.15332C17.6155 4.15332 16.9686 4.79551 16.9686 5.59238C16.9686 6.38457 17.6108 7.03145 18.4077 7.03145Z" fill="#B00019"/>
</g>
<defs>
<clipPath id="clip0_4626_12936">
<rect width="24" height="24" fill="white"/>
</clipPath>
</defs>
</svg>
